Coordinates
version=1
nRows=49
nColumns=12
inDegrees=yes

Units are S.I. units (second, meters, Newtons, ...)
Angles are in degrees

endheader
time	SC_y	SC_z	SC_x	AC_y	AC_z	AC_x	GH_y	GH_z	GH_yy	EL_x	PS_y
       0.0              -47.15          5.175          82.11          44.37         -16.14         -15.21         -128.4         -19.61         -64.36          81.48          95.06
   0.04021              -47.15          5.174          82.11          44.37         -16.14         -15.21         -128.3         -19.61         -64.34          81.47          95.05
   0.08042              -47.14          5.173          82.11          44.38         -16.13         -15.21         -128.3         -19.61         -64.33          81.46          95.04
    0.1206              -47.14          5.172          82.11          44.38         -16.13          -15.2         -128.2         -19.61         -64.31          81.45          95.02
    0.1608              -47.14          5.171           82.1          44.38         -16.13          -15.2         -128.2         -19.61         -64.29          81.45          95.01
    0.2011              -47.13          5.169           82.1          44.39         -16.12          -15.2         -128.1         -19.61         -64.27          81.44           95.0
    0.2413              -47.13          5.168           82.1          44.39         -16.12         -15.19         -128.1         -19.61         -64.24          81.43          94.98
    0.2815              -47.12          5.166           82.1          44.39         -16.11         -15.19         -128.0         -19.61         -64.22          81.42          94.97
    0.3217              -47.12          5.164           82.1           44.4          -16.1         -15.19         -128.0         -19.61         -64.19          81.41          94.95
    0.3619              -47.11          5.163           82.1           44.4          -16.1         -15.18         -127.9         -19.61         -64.17          81.39          94.93
    0.4021               -47.1          5.161          82.09           44.4         -16.09         -15.18         -127.8         -19.61         -64.14          81.38          94.92
    0.4423               -47.1          5.159          82.09          44.41         -16.08         -15.17         -127.8         -19.61         -64.11          81.37           94.9
    0.4825              -47.09          5.156          82.09          44.41         -16.08         -15.17         -127.7         -19.61         -64.07          81.35          94.87
    0.5228              -47.08          5.154          82.09          44.42         -16.07         -15.16         -127.6         -19.61         -64.03          81.34          94.85
     0.563              -47.07          5.151          82.08          44.43         -16.06         -15.16         -127.5         -19.61         -63.99          81.32          94.82
    0.6032              -47.06          5.148          82.08          44.43         -16.05         -15.15         -127.4         -19.61         -63.95           81.3           94.8
    0.6434              -47.05          5.145          82.08          44.44         -16.04         -15.14         -127.3         -19.61          -63.9          81.28          94.77
    0.6836              -47.04          5.142          82.07          44.45         -16.03         -15.14         -127.2         -19.61         -63.85          81.26          94.73
    0.7238              -47.03          5.138          82.07          44.46         -16.01         -15.13         -127.0         -19.61         -63.79          81.23           94.7
     0.764              -47.02          5.134          82.06          44.47          -16.0         -15.12         -126.9          -19.6         -63.73          81.21          94.66
    0.8042               -47.0           5.13          82.06          44.48         -15.98         -15.11         -126.7          -19.6         -63.67          81.18          94.62
    0.8444              -46.99          5.125          82.05          44.49         -15.97          -15.1         -126.6          -19.6         -63.59          81.15          94.57
    0.8847              -46.97          5.119          82.05           44.5         -15.95         -15.09         -126.4          -19.6         -63.51          81.11          94.52
    0.9249              -46.95          5.113          82.04          44.51         -15.93         -15.07         -126.1          -19.6         -63.42          81.07          94.46
    0.9651              -46.93          5.107          82.03          44.53          -15.9         -15.06         -125.9          -19.6         -63.32          81.03          94.39
     1.005               -46.9          5.099          82.03          44.54         -15.88         -15.04         -125.6          -19.6          -63.2          80.98          94.32
     1.046              -46.87          5.091          82.02          44.56         -15.85         -15.02         -125.3          -19.6         -63.08          80.92          94.24
     1.086              -46.84          5.082          82.01          44.58         -15.82          -15.0         -125.0          -19.6         -62.93          80.86          94.15
     1.126              -46.81          5.071           82.0          44.61         -15.78         -14.98         -124.6          -19.6         -62.77          80.79          94.05
     1.166              -46.77          5.059          81.98          44.64         -15.74         -14.95         -124.2          -19.6         -62.59          80.71          93.93
     1.206              -46.72          5.045          81.97          44.67         -15.69         -14.92         -123.7          -19.6         -62.38          80.62           93.8
     1.247              -46.67          5.029          81.95           44.7         -15.64         -14.89         -123.1          -19.6         -62.14          80.52          93.65
     1.287              -46.61          5.011          81.93          44.74         -15.57         -14.85         -122.5          -19.6         -61.86           80.4          93.47
     1.327              -46.54           4.99          81.91          44.79          -15.5          -14.8         -121.7          -19.6         -61.54          80.26          93.27
     1.367              -46.46          4.965          81.88          44.85         -15.41         -14.74         -120.8          -19.6         -61.17           80.1          93.03
     1.407              -46.36          4.936          81.85          44.91         -15.31         -14.68         -119.8         -19.59         -60.72          79.91          92.75
     1.448              -46.25          4.902          81.81          44.99         -15.19          -14.6         -118.6         -19.59         -60.19          79.68          92.41
     1.488              -46.11           4.86          81.77          45.09         -15.05         -14.51         -117.1         -19.59         -59.56          79.41          92.01
     1.528              -45.95           4.81          81.71           45.2         -14.87          -14.4         -115.3         -19.59          -58.8          79.08          91.53
     1.568              -45.74          4.748          81.65          45.34         -14.66         -14.26         -113.1         -19.58         -57.86          78.68          90.93
     1.608              -45.49          4.673          81.56          45.51          -14.4         -14.09         -110.3         -19.58         -56.71          78.18           90.2
     1.649              -45.18          4.578          81.46          45.73         -14.07         -13.88         -107.0         -19.58         -55.27          77.57          89.29
     1.689              -44.79          4.459          81.33           46.0         -13.66         -13.62         -102.7         -19.57         -53.46          76.79          88.14
     1.729              -44.29          4.308          81.17          46.34         -13.13         -13.28         -97.27         -19.56         -51.16           75.8          86.68
     1.769              -43.65          4.114          80.96          46.78         -12.46         -12.85         -90.32         -19.55         -48.21          74.53          84.81
      1.81              -42.83          3.866          80.68          47.34          -11.6          -12.3         -81.41         -19.54         -44.43           72.9          82.41
      1.85              -41.79          3.548          80.34          48.07          -10.5         -11.59         -70.03         -19.52          -39.6          70.82          79.34
      1.89              -40.47          3.149          79.91          48.97          -9.11          -10.7         -55.72          -19.5         -33.53          68.21          75.48
      1.93              -38.87          2.662          79.38          50.08         -7.422         -9.618         -38.29         -19.47         -26.13          65.02          70.79
